<?xml version="1.0" encoding="UTF-8" standalone="no"?>
<!DOCTYPE svg PUBLIC "-//W3C//DTD SVG 1.1//EN" "http://www.w3.org/Graphics/SVG/1.1/DTD/svg11.dtd">
<svg width="100%" height="100%" viewBox="0 0 1687 1688" version="1.1" xmlns="http://www.w3.org/2000/svg" xmlns:xlink="http://www.w3.org/1999/xlink" xml:space="preserve" xmlns:serif="http://www.serif.com/" style="fill-rule:evenodd;clip-rule:evenodd;stroke-linejoin:round;stroke-miterlimit:2;">
    <g transform="matrix(1,0,0,1,-2109.33,-1321.89)">
        <g transform="matrix(1.82294,0,0,1.82294,218.352,-568.959)">
            <g transform="matrix(1.70434,0,0,1.70434,-887.782,-1957.79)">
                <g>
                    <g transform="matrix(6.39698e-18,0.104008,-0.525643,3.20437e-17,2006.8,2020.27)">
                        <path d="M1728,1087.88C1728,1074.15 1671.65,1063 1602.25,1063L1350.75,1063C1281.35,1063 1225,1074.15 1225,1087.88L1225,1217.12C1225,1230.85 1281.35,1242 1350.75,1242L1602.25,1242C1671.65,1242 1728,1230.85 1728,1217.12L1728,1087.88Z" style="fill:rgb(45,83,154);"/>
                    </g>
                    <path d="M1401,1879.34C1429.85,1894.93 1451.03,1946 1451.03,2006.51C1451.03,2067.02 1429.85,2118.09 1401,2133.68C1372.15,2118.09 1350.98,2067.02 1350.98,2006.51C1350.98,1946 1372.15,1894.93 1401,1879.34ZM1390.31,1995.86C1393.51,1977.5 1402.23,1961.07 1411.31,1944.12C1412.26,1942.36 1414.46,1941.69 1416.22,1942.64C1417.98,1943.58 1418.65,1945.78 1417.7,1947.54C1406.42,1968.6 1395.42,1988.72 1396.34,2013.31C1396.72,2023.52 1399.21,2033.51 1401.71,2043.44C1402.73,2042.1 1403.67,2040.69 1404.59,2039.35C1410.15,2031.29 1414.77,2022.15 1417.54,2012.75C1418.11,2010.83 1420.13,2009.74 1422.05,2010.3C1423.97,2010.87 1425.06,2012.89 1424.5,2014.81C1421.51,2024.93 1416.55,2034.78 1410.56,2043.47C1408.56,2046.38 1406.41,2049.48 1403.8,2051.97C1404.04,2052.99 1404.27,2054 1404.49,2055.01C1407.71,2069.7 1409.17,2084.42 1403.15,2099.65C1402.41,2101.51 1400.31,2102.42 1398.45,2101.68C1396.59,2100.95 1395.67,2098.84 1396.41,2096.98C1401.86,2083.19 1400.32,2069.87 1397.41,2056.57C1397.09,2055.09 1396.75,2053.62 1396.4,2052.14C1396.23,2051.75 1396.13,2051.34 1396.11,2050.93C1393.14,2038.61 1389.57,2026.25 1389.09,2013.58C1389.06,2012.57 1389.04,2011.57 1389.04,2010.58C1380.67,1995.25 1377.69,1979.1 1376.66,1961.7C1376.54,1959.71 1378.07,1957.99 1380.06,1957.87C1382.06,1957.75 1383.78,1959.28 1383.9,1961.28C1384.61,1973.39 1386.29,1984.86 1390.31,1995.86Z" style="fill:rgb(95,187,70);"/>
                </g>
                <g transform="matrix(0.950965,0,0,0.950965,68.6984,99.4835)">
                    <g transform="matrix(1.13964,0,0,1.13964,-195.642,-283.313)">
                        <path d="M1200.52,1952.21L1200.52,1952.14C1200.52,1946.99 1202.88,1942.39 1206.58,1939.36L1311.26,1835.14C1314.25,1831 1319.11,1828.31 1324.61,1828.31L1477.39,1828.31C1482.89,1828.31 1487.75,1831 1490.74,1835.14L1595.42,1939.36C1599.12,1942.39 1601.48,1946.99 1601.48,1952.14L1601.48,2103.96C1601.48,2104.21 1601.47,2104.45 1601.46,2104.7C1601.66,2109.14 1600.05,2113.66 1596.64,2117.05L1490.74,2222.49C1487.75,2226.63 1482.89,2229.32 1477.39,2229.32L1324.61,2229.32C1319.11,2229.32 1314.25,2226.63 1311.26,2222.49L1205.36,2117.05C1201.95,2113.66 1200.34,2109.14 1200.54,2104.7L1200.52,2104.16C1200.52,2104.1 1200.52,2104.03 1200.52,2103.96L1200.52,1952.21L1200.52,1952.21ZM1332.99,1850.31C1328.1,1850.31 1323.77,1852.71 1321.11,1856.39L1227.92,1949.17C1224.62,1951.87 1222.52,1955.97 1222.52,1960.55L1222.52,2095.72L1222.53,2096.37C1222.36,2100.33 1223.79,2104.35 1226.82,2107.37L1321.11,2201.24C1323.77,2204.92 1328.1,2207.32 1332.99,2207.32L1469.01,2207.32C1473.9,2207.32 1478.24,2204.92 1480.89,2201.24L1575.18,2107.37C1578.21,2104.35 1579.64,2100.33 1579.47,2096.37C1579.48,2096.15 1579.48,2095.94 1579.48,2095.72L1579.48,1960.55C1579.48,1955.97 1577.38,1951.87 1574.08,1949.17L1480.89,1856.39C1478.24,1852.71 1473.9,1850.31 1469.01,1850.31L1332.99,1850.31Z" style="fill:rgb(95,187,70);"/>
                    </g>
                    <path d="M1115.53,1919.73L1115.53,1919.64C1115.53,1912.3 1118.9,1905.75 1124.17,1901.43L1273.22,1753.04C1277.47,1747.15 1284.4,1743.31 1292.22,1743.31L1509.78,1743.31C1517.6,1743.31 1524.53,1747.15 1528.78,1753.04L1677.83,1901.43C1683.1,1905.75 1686.47,1912.3 1686.47,1919.64L1686.47,2135.82C1686.47,2136.17 1686.46,2136.51 1686.44,2136.86C1686.72,2143.2 1684.44,2149.62 1679.58,2154.46L1528.78,2304.59C1524.53,2310.48 1517.6,2314.32 1509.78,2314.32L1292.22,2314.32C1284.4,2314.32 1277.47,2310.48 1273.22,2304.59L1122.42,2154.46C1117.56,2149.62 1115.28,2143.2 1115.56,2136.86L1115.54,2136.1C1115.54,2136.01 1115.53,2135.91 1115.53,2135.82L1115.53,1919.74L1115.53,1919.73ZM1164.53,1938.45L1164.53,1938.38C1164.53,1932.3 1167.31,1926.87 1171.68,1923.29L1295.15,1800.37C1298.67,1795.49 1304.41,1792.31 1310.89,1792.31L1491.11,1792.31C1497.59,1792.31 1503.33,1795.49 1506.85,1800.37L1630.32,1923.29C1634.69,1926.87 1637.47,1932.3 1637.47,1938.38L1637.47,2117.45C1637.47,2117.74 1637.47,2118.03 1637.45,2118.32C1637.69,2123.57 1635.79,2128.89 1631.77,2132.89L1506.85,2257.26C1503.33,2262.14 1497.59,2265.32 1491.11,2265.32L1310.89,2265.32C1304.41,2265.32 1298.67,2262.14 1295.15,2257.26L1170.23,2132.89C1166.21,2128.89 1164.31,2123.57 1164.55,2118.32L1164.53,2117.69C1164.53,2117.61 1164.53,2117.53 1164.53,2117.45L1164.53,1938.46L1164.53,1938.45Z" style="fill:rgb(44,82,153);"/>
                </g>
            </g>
        </g>
    </g>
</svg>
