<?xml version="1.0" encoding="UTF-8" standalone="no"?>
<!DOCTYPE svg PUBLIC "-//W3C//DTD SVG 1.1//EN" "http://www.w3.org/Graphics/SVG/1.1/DTD/svg11.dtd">
<svg width="100%" height="100%" viewBox="0 0 4725 3262" version="1.1" xmlns="http://www.w3.org/2000/svg" xmlns:xlink="http://www.w3.org/1999/xlink" xml:space="preserve" xmlns:serif="http://www.serif.com/" style="fill-rule:evenodd;clip-rule:evenodd;stroke-linejoin:round;stroke-miterlimit:2;">
    <g transform="matrix(1,0,0,1,-590.551,-1321.89)">
        <g transform="matrix(1.39617,0,0,1.39617,396.777,876.449)">
            <g>
                <g transform="matrix(3.0237,0,0,3.0237,102.602,774.197)">
                    <g transform="matrix(1,0,0,1,-9.78544,-1)">
                        <g transform="matrix(1,0,0,1,-105,-9.97769)">
                            <text x="219.214px" y="625.537px" style="font-family:'ArialMT', 'Arial', sans-serif;font-size:50px;fill:rgb(35,31,32);">085155099250</text>
                        </g>
                        <g transform="matrix(0.81422,0,0,0.81422,-260.863,539.236)">
                            <g transform="matrix(-54.7765,54.7765,54.7765,54.7765,441.3,41.9759)">
                                <path d="M0.376,-0.392C0.472,-0.487 0.627,-0.487 0.722,-0.392L0.941,-0.173C1.036,-0.078 1.036,0.078 0.941,0.173L0.722,0.392C0.627,0.487 0.472,0.487 0.376,0.392L0.157,0.173C0.062,0.078 0.062,-0.078 0.157,-0.173L0.376,-0.392ZM0.92,-0.152L0.701,-0.371C0.617,-0.455 0.481,-0.455 0.397,-0.371L0.178,-0.152C0.094,-0.068 0.094,0.068 0.178,0.152L0.397,0.371C0.481,0.455 0.617,0.455 0.701,0.371L0.92,0.152C1.004,0.068 1.004,-0.068 0.92,-0.152Z" style="fill:url(#_Linear1);fill-rule:nonzero;"/>
                            </g>
                            <g transform="matrix(-54.7769,54.7769,54.7769,54.7769,441.3,41.9755)">
                                <path d="M0.528,-0.127C0.529,-0.128 0.53,-0.129 0.532,-0.13C0.557,-0.14 0.578,-0.117 0.578,-0.117C0.611,-0.084 0.614,-0.027 0.613,-0.002C0.614,0.021 0.612,0.083 0.578,0.117C0.578,0.117 0.557,0.14 0.532,0.13C0.53,0.129 0.529,0.128 0.528,0.127L0.518,0.118C0.515,0.114 0.513,0.108 0.515,0.104L0.531,0.062C0.532,0.058 0.535,0.055 0.539,0.055L0.559,0.051C0.564,0.05 0.569,0.046 0.571,0.041C0.573,0.033 0.573,-0.033 0.571,-0.041C0.569,-0.046 0.564,-0.05 0.558,-0.051L0.539,-0.055C0.535,-0.055 0.532,-0.058 0.531,-0.062L0.515,-0.103C0.513,-0.108 0.514,-0.114 0.518,-0.118L0.528,-0.127Z" style="fill:url(#_Linear2);fill-rule:nonzero;"/>
                            </g>
                            <g transform="matrix(-54.7763,54.7763,54.7763,54.7763,441.3,41.9761)">
                                <path d="M0.701,-0.16C0.729,-0.132 0.749,-0.098 0.759,-0.06L0.876,-0L0.759,0.06C0.749,0.098 0.729,0.132 0.701,0.16C0.613,0.248 0.47,0.248 0.382,0.16C0.294,0.072 0.294,-0.072 0.382,-0.16C0.47,-0.248 0.613,-0.248 0.701,-0.16ZM0.724,-0.033L0.722,-0.042C0.714,-0.076 0.697,-0.107 0.673,-0.131C0.6,-0.203 0.483,-0.203 0.41,-0.131C0.338,-0.059 0.338,0.059 0.41,0.131C0.483,0.203 0.6,0.203 0.673,0.131C0.697,0.107 0.714,0.076 0.722,0.042L0.724,0.033L0.788,0L0.724,-0.033Z" style="fill:url(#_Linear3);fill-rule:nonzero;"/>
                            </g>
                        </g>
                    </g>
                    <g transform="matrix(1,0,0,1,595.222,-77.5246)">
                        <g transform="matrix(1,0,0,1,-105,63.5675)">
                            <text x="219.214px" y="625.537px" style="font-family:'ArialMT', 'Arial', sans-serif;font-size:50px;fill:rgb(35,31,32);">@indesignplant.id</text>
                        </g>
                        <g transform="matrix(0.814222,0,0,0.814222,-170.521,523.358)">
                            <g transform="matrix(-55.1426,55.1426,55.1426,55.1426,329.3,153.976)">
                                <path d="M0.334,-0.389C0.429,-0.484 0.583,-0.484 0.678,-0.389L0.895,-0.172C0.99,-0.077 0.99,0.077 0.895,0.172L0.678,0.389C0.583,0.484 0.429,0.484 0.334,0.389L0.117,0.172C0.022,0.077 0.022,-0.077 0.117,-0.172L0.334,-0.389ZM0.875,-0.151L0.657,-0.368C0.574,-0.452 0.438,-0.452 0.355,-0.368L0.138,-0.151C0.054,-0.068 0.054,0.068 0.138,0.151L0.355,0.368C0.438,0.452 0.574,0.452 0.657,0.368L0.875,0.151C0.958,0.068 0.958,-0.068 0.875,-0.151Z" style="fill:url(#_Linear4);fill-rule:nonzero;"/>
                            </g>
                            <g transform="matrix(-55.1427,55.1427,55.1427,55.1427,329.3,153.976)">
                                <path d="M0.428,-0.194C0.471,-0.237 0.541,-0.237 0.585,-0.194L0.7,-0.078C0.743,-0.035 0.743,0.035 0.7,0.078L0.585,0.194C0.541,0.237 0.471,0.237 0.428,0.194L0.312,0.078C0.269,0.035 0.269,-0.035 0.312,-0.078L0.428,-0.194ZM0.672,-0.051L0.557,-0.166C0.529,-0.194 0.483,-0.194 0.455,-0.166L0.34,-0.051C0.312,-0.023 0.312,0.023 0.34,0.051L0.455,0.166C0.483,0.194 0.529,0.194 0.557,0.166L0.672,0.051C0.7,0.023 0.7,-0.023 0.672,-0.051Z" style="fill:url(#_Linear5);fill-rule:nonzero;"/>
                            </g>
                            <g transform="matrix(-55.1427,55.1427,55.1427,55.1427,329.299,153.975)">
                                <path d="M0.569,-0.063C0.604,-0.028 0.604,0.028 0.569,0.063C0.534,0.098 0.478,0.098 0.443,0.063C0.408,0.028 0.408,-0.028 0.443,-0.063C0.478,-0.098 0.534,-0.098 0.569,-0.063ZM0.54,-0.034C0.521,-0.053 0.491,-0.053 0.472,-0.034C0.453,-0.015 0.453,0.015 0.472,0.034C0.491,0.053 0.521,0.053 0.54,0.034C0.559,0.015 0.559,-0.015 0.54,-0.034Z" style="fill:url(#_Linear6);fill-rule:nonzero;"/>
                            </g>
                            <g transform="matrix(0,77.9836,77.9836,0,309.2,145.616)">
                                <ellipse cx="0.363" cy="-0" rx="0.027" ry="0.027" style="fill:url(#_Linear7);"/>
                            </g>
                        </g>
                    </g>
                </g>
                <g transform="matrix(1.30567,0,0,1.30567,-127.796,-1035.27)">
                    <g transform="matrix(1.84856,0,0,1.84856,-1480.22,-311.285)">
                        <g transform="matrix(1,0,0,1,-51,36.0112)">
                            <g transform="matrix(4.96336,0,0,4.96336,-4807.31,-10577.7)">
                                <g transform="matrix(0.206208,0,0,0.206208,905.443,1959.8)">
                                    <g>
                                        <g transform="matrix(6.39698e-18,0.104008,-0.525643,3.20437e-17,2006.8,2020.27)">
                                            <path d="M1728,1087.88C1728,1074.15 1671.65,1063 1602.25,1063L1350.75,1063C1281.35,1063 1225,1074.15 1225,1087.88L1225,1217.12C1225,1230.85 1281.35,1242 1350.75,1242L1602.25,1242C1671.65,1242 1728,1230.85 1728,1217.12L1728,1087.88Z" style="fill:rgb(45,83,154);"/>
                                        </g>
                                        <path d="M1401,1879.34C1429.85,1894.93 1451.03,1946 1451.03,2006.51C1451.03,2067.02 1429.85,2118.09 1401,2133.68C1372.15,2118.09 1350.98,2067.02 1350.98,2006.51C1350.98,1946 1372.15,1894.93 1401,1879.34ZM1390.31,1995.86C1393.51,1977.5 1402.23,1961.07 1411.31,1944.12C1412.26,1942.36 1414.46,1941.69 1416.22,1942.64C1417.98,1943.58 1418.65,1945.78 1417.7,1947.54C1406.42,1968.6 1395.42,1988.72 1396.34,2013.31C1396.72,2023.52 1399.21,2033.51 1401.71,2043.44C1402.73,2042.1 1403.67,2040.69 1404.59,2039.35C1410.15,2031.29 1414.77,2022.15 1417.54,2012.75C1418.11,2010.83 1420.13,2009.74 1422.05,2010.3C1423.97,2010.87 1425.06,2012.89 1424.5,2014.81C1421.51,2024.93 1416.55,2034.78 1410.56,2043.47C1408.56,2046.38 1406.41,2049.48 1403.8,2051.97C1404.04,2052.99 1404.27,2054 1404.49,2055.01C1407.71,2069.7 1409.17,2084.42 1403.15,2099.65C1402.41,2101.51 1400.31,2102.42 1398.45,2101.68C1396.59,2100.95 1395.67,2098.84 1396.41,2096.98C1401.86,2083.19 1400.32,2069.87 1397.41,2056.57C1397.09,2055.09 1396.75,2053.62 1396.4,2052.14C1396.23,2051.75 1396.13,2051.34 1396.11,2050.93C1393.14,2038.61 1389.57,2026.25 1389.09,2013.58C1389.06,2012.57 1389.04,2011.57 1389.04,2010.58C1380.67,1995.25 1377.69,1979.1 1376.66,1961.7C1376.54,1959.71 1378.07,1957.99 1380.06,1957.87C1382.06,1957.75 1383.78,1959.28 1383.9,1961.28C1384.61,1973.39 1386.29,1984.86 1390.31,1995.86Z" style="fill:rgb(95,187,70);"/>
                                    </g>
                                </g>
                                <g transform="matrix(1,0,0,1,7.46058,5.45479)">
                                    <path d="M1218.17,2380.5C1214.77,2380.5 1211.72,2381.65 1209.57,2383.9L1209.57,2380.95L1200.52,2380.95L1200.52,2408.04L1210.02,2408.04L1210.02,2394.94C1210.02,2390.44 1212.37,2388.54 1215.42,2388.54C1218.17,2388.54 1219.87,2390.19 1219.87,2394.09L1219.87,2408.04L1229.37,2408.04L1229.37,2392.54C1229.37,2384.15 1224.52,2380.5 1218.17,2380.5Z" style="fill:rgb(45,83,154);fill-rule:nonzero;"/>
                                    <path d="M1235.77,2408.04L1252.32,2408.04C1263.92,2408.04 1271.87,2401.3 1271.87,2390.55C1271.87,2379.79 1263.92,2373.05 1252.32,2373.05L1235.77,2373.05L1235.77,2408.04ZM1245.67,2400.15L1245.67,2380.94L1251.92,2380.94C1257.87,2380.94 1261.87,2384.49 1261.87,2390.55C1261.87,2396.6 1257.87,2400.15 1251.92,2400.15L1245.67,2400.15Z" style="fill:rgb(45,83,154);fill-rule:nonzero;"/>
                                    <path d="M1304.32,2394.55C1304.32,2385.6 1297.82,2380.5 1289.82,2380.5C1281.27,2380.5 1274.92,2386.29 1274.92,2394.45C1274.92,2402.55 1281.17,2408.49 1290.82,2408.49C1295.97,2408.49 1299.77,2406.99 1302.37,2404.1L1297.37,2398.9C1295.52,2400.5 1293.77,2401.25 1291.12,2401.25C1287.62,2401.25 1285.27,2399.65 1284.47,2396.89L1304.17,2396.89C1304.22,2396.14 1304.32,2395.25 1304.32,2394.55ZM1289.87,2387.24C1292.82,2387.24 1294.92,2389.05 1295.42,2391.9L1284.32,2391.9C1284.87,2389.05 1286.92,2387.24 1289.87,2387.24Z" style="fill:rgb(45,83,154);fill-rule:nonzero;"/>
                                    <path d="M1318.57,2408.49C1327.37,2408.49 1331.97,2404.6 1331.97,2399.59C1331.97,2388.84 1316.02,2392.88 1316.02,2389.14C1316.02,2388.14 1317.17,2387.24 1320.37,2387.24C1322.77,2387.24 1325.47,2387.74 1328.17,2389.24L1331.02,2382.8C1328.32,2381.3 1324.12,2380.5 1320.32,2380.5C1311.82,2380.5 1307.12,2384.4 1307.12,2389.49C1307.12,2400.35 1323.12,2396.18 1323.12,2399.84C1323.12,2401 1322.07,2401.7 1318.87,2401.7C1315.57,2401.7 1311.92,2400.75 1309.42,2399.19L1306.57,2405.7C1309.22,2407.35 1313.97,2408.49 1318.57,2408.49Z" style="fill:rgb(45,83,154);fill-rule:nonzero;"/>
                                    <path d="M1340.82,2377.94C1344.32,2377.94 1346.62,2375.74 1346.62,2372.75C1346.62,2369.9 1344.32,2367.85 1340.82,2367.85C1337.32,2367.85 1335.02,2370.05 1335.02,2372.9C1335.02,2375.74 1337.32,2377.94 1340.82,2377.94ZM1336.07,2408.04L1345.57,2408.04L1345.57,2380.95L1336.07,2380.95L1336.07,2408.04Z" style="fill:rgb(45,83,154);fill-rule:nonzero;"/>
                                    <path d="M1371.82,2380.95L1371.82,2384.25C1369.97,2381.7 1367.07,2380.5 1363.32,2380.5C1356.12,2380.5 1350.02,2385.6 1350.02,2393.55C1350.02,2401.55 1356.12,2406.64 1363.32,2406.64C1366.77,2406.64 1369.52,2405.59 1371.37,2403.45L1371.37,2404.35C1371.37,2408.6 1369.22,2410.9 1364.12,2410.9C1360.92,2410.9 1357.22,2409.8 1354.97,2408L1351.52,2414.65C1354.82,2416.99 1359.77,2418.19 1364.97,2418.19C1375.07,2418.19 1380.87,2413.35 1380.87,2403.1L1380.87,2380.95L1371.82,2380.95ZM1365.57,2399.1C1362.17,2399.1 1359.62,2396.85 1359.62,2393.55C1359.62,2390.24 1362.17,2388.04 1365.57,2388.04C1368.97,2388.04 1371.47,2390.24 1371.47,2393.55C1371.47,2396.85 1368.97,2399.1 1365.57,2399.1Z" style="fill:rgb(45,83,154);fill-rule:nonzero;"/>
                                    <path d="M1404.62,2380.5C1401.22,2380.5 1398.17,2381.65 1396.02,2383.9L1396.02,2380.95L1386.97,2380.95L1386.97,2408.04L1396.47,2408.04L1396.47,2394.94C1396.47,2390.44 1398.82,2388.54 1401.87,2388.54C1404.62,2388.54 1406.32,2390.19 1406.32,2394.09L1406.32,2408.04L1415.82,2408.04L1415.82,2392.54C1415.82,2384.15 1410.97,2380.5 1404.62,2380.5Z" style="fill:rgb(45,83,154);fill-rule:nonzero;"/>
                                </g>
                            </g>
                            <g transform="matrix(1.28096,0,0,1.28096,567.356,-1625.68)">
                                <path d="M1200.62,2380.5C1197.07,2380.5 1194.42,2381.5 1192.62,2383.65L1192.62,2380.95L1183.57,2380.95L1183.57,2417.74L1193.07,2417.74L1193.07,2405.65C1194.92,2407.54 1197.47,2408.49 1200.62,2408.49C1207.97,2408.49 1213.92,2403.1 1213.92,2394.5C1213.92,2385.89 1207.97,2380.5 1200.62,2380.5ZM1198.62,2400.95C1195.42,2400.95 1192.92,2398.6 1192.92,2394.5C1192.92,2390.39 1195.42,2388.04 1198.62,2388.04C1201.82,2388.04 1204.32,2390.39 1204.32,2394.5C1204.32,2398.6 1201.82,2400.95 1198.62,2400.95Z" style="fill:rgb(95,187,70);fill-rule:nonzero;"/>
                                <rect x="1218.32" y="2370.95" width="9.494" height="37.094" style="fill:rgb(95,187,70);fill-rule:nonzero;"/>
                                <path d="M1245.52,2380.5C1241.27,2380.5 1236.67,2381.6 1233.57,2383.65L1236.77,2390.1C1238.62,2388.64 1241.52,2387.74 1244.12,2387.74C1247.87,2387.74 1249.72,2389.3 1249.87,2392.05L1244.47,2392.05C1236.07,2392.05 1232.42,2395.15 1232.42,2400.15C1232.42,2404.85 1236.02,2408.49 1242.52,2408.49C1246.47,2408.49 1249.17,2407.14 1250.52,2404.55L1250.52,2408.04L1259.37,2408.04L1259.37,2393C1259.37,2384.4 1254.32,2380.5 1245.52,2380.5ZM1245.17,2402.5C1242.92,2402.5 1241.62,2401.35 1241.62,2399.75C1241.62,2398.1 1242.72,2396.99 1245.77,2396.99L1249.87,2396.99L1249.87,2399.35C1249.12,2401.5 1247.27,2402.5 1245.17,2402.5Z" style="fill:rgb(95,187,70);fill-rule:nonzero;"/>
                                <path d="M1283.02,2380.5C1279.62,2380.5 1276.57,2381.65 1274.42,2383.9L1274.42,2380.95L1265.37,2380.95L1265.37,2408.04L1274.87,2408.04L1274.87,2394.94C1274.87,2390.44 1277.22,2388.54 1280.27,2388.54C1283.02,2388.54 1284.72,2390.19 1284.72,2394.09L1284.72,2408.04L1294.22,2408.04L1294.22,2392.54C1294.22,2384.15 1289.37,2380.5 1283.02,2380.5Z" style="fill:rgb(95,187,70);fill-rule:nonzero;"/>
                                <path d="M1316.52,2400.3C1315.72,2400.85 1314.67,2401.15 1313.62,2401.15C1311.92,2401.15 1310.77,2400.05 1310.77,2398.05L1310.77,2389.04L1316.97,2389.04L1316.97,2381.95L1310.77,2381.95L1310.77,2374.9L1301.27,2374.9L1301.27,2381.95L1297.32,2381.95L1297.32,2389.04L1301.27,2389.04L1301.27,2398.15C1301.27,2405.1 1305.32,2408.49 1312.27,2408.49C1314.77,2408.49 1317.22,2407.99 1318.87,2406.95L1316.52,2400.3Z" style="fill:rgb(95,187,70);fill-rule:nonzero;"/>
                            </g>
                        </g>
                        <g transform="matrix(1.66246,1.71687e-16,-1.71687e-16,-0.260525,-1018.09,1784)">
                            <path d="M1728,1107.75C1728,1083.05 1724.86,1063 1720.99,1063L1232.01,1063C1228.14,1063 1225,1083.05 1225,1107.75L1225,1197.25C1225,1221.95 1228.14,1242 1232.01,1242L1720.99,1242C1724.86,1242 1728,1221.95 1728,1197.25L1728,1107.75Z" style="fill:rgb(95,187,70);"/>
                        </g>
                    </g>
                    <g transform="matrix(1.70434,0,0,1.70434,-887.782,-1957.79)">
                        <g>
                            <g transform="matrix(6.39698e-18,0.104008,-0.525643,3.20437e-17,2006.8,2020.27)">
                                <path d="M1728,1087.88C1728,1074.15 1671.65,1063 1602.25,1063L1350.75,1063C1281.35,1063 1225,1074.15 1225,1087.88L1225,1217.12C1225,1230.85 1281.35,1242 1350.75,1242L1602.25,1242C1671.65,1242 1728,1230.85 1728,1217.12L1728,1087.88Z" style="fill:rgb(45,83,154);"/>
                            </g>
                            <path d="M1401,1879.34C1429.85,1894.93 1451.03,1946 1451.03,2006.51C1451.03,2067.02 1429.85,2118.09 1401,2133.68C1372.15,2118.09 1350.98,2067.02 1350.98,2006.51C1350.98,1946 1372.15,1894.93 1401,1879.34ZM1390.31,1995.86C1393.51,1977.5 1402.23,1961.07 1411.31,1944.12C1412.26,1942.36 1414.46,1941.69 1416.22,1942.64C1417.98,1943.58 1418.65,1945.78 1417.7,1947.54C1406.42,1968.6 1395.42,1988.72 1396.34,2013.31C1396.72,2023.52 1399.21,2033.51 1401.71,2043.44C1402.73,2042.1 1403.67,2040.69 1404.59,2039.35C1410.15,2031.29 1414.77,2022.15 1417.54,2012.75C1418.11,2010.83 1420.13,2009.74 1422.05,2010.3C1423.97,2010.87 1425.06,2012.89 1424.5,2014.81C1421.51,2024.93 1416.55,2034.78 1410.56,2043.47C1408.56,2046.38 1406.41,2049.48 1403.8,2051.97C1404.04,2052.99 1404.27,2054 1404.49,2055.01C1407.71,2069.7 1409.17,2084.42 1403.15,2099.65C1402.41,2101.51 1400.31,2102.42 1398.45,2101.68C1396.59,2100.95 1395.67,2098.84 1396.41,2096.98C1401.86,2083.19 1400.32,2069.87 1397.41,2056.57C1397.09,2055.09 1396.75,2053.62 1396.4,2052.14C1396.23,2051.75 1396.13,2051.34 1396.11,2050.93C1393.14,2038.61 1389.57,2026.25 1389.09,2013.58C1389.06,2012.57 1389.04,2011.57 1389.04,2010.58C1380.67,1995.25 1377.69,1979.1 1376.66,1961.7C1376.54,1959.71 1378.07,1957.99 1380.06,1957.87C1382.06,1957.75 1383.78,1959.28 1383.9,1961.28C1384.61,1973.39 1386.29,1984.86 1390.31,1995.86Z" style="fill:rgb(95,187,70);"/>
                        </g>
                        <g transform="matrix(0.950965,0,0,0.950965,68.6984,99.4835)">
                            <g transform="matrix(1.13964,0,0,1.13964,-195.642,-283.313)">
                                <path d="M1200.52,1952.21L1200.52,1952.14C1200.52,1946.99 1202.88,1942.39 1206.58,1939.36L1311.26,1835.14C1314.25,1831 1319.11,1828.31 1324.61,1828.31L1477.39,1828.31C1482.89,1828.31 1487.75,1831 1490.74,1835.14L1595.42,1939.36C1599.12,1942.39 1601.48,1946.99 1601.48,1952.14L1601.48,2103.96C1601.48,2104.21 1601.47,2104.45 1601.46,2104.7C1601.66,2109.14 1600.05,2113.66 1596.64,2117.05L1490.74,2222.49C1487.75,2226.63 1482.89,2229.32 1477.39,2229.32L1324.61,2229.32C1319.11,2229.32 1314.25,2226.63 1311.26,2222.49L1205.36,2117.05C1201.95,2113.66 1200.34,2109.14 1200.54,2104.7L1200.52,2104.16C1200.52,2104.1 1200.52,2104.03 1200.52,2103.96L1200.52,1952.21L1200.52,1952.21ZM1332.99,1850.31C1328.1,1850.31 1323.77,1852.71 1321.11,1856.39L1227.92,1949.17C1224.62,1951.87 1222.52,1955.97 1222.52,1960.55L1222.52,2095.72L1222.53,2096.37C1222.36,2100.33 1223.79,2104.35 1226.82,2107.37L1321.11,2201.24C1323.77,2204.92 1328.1,2207.32 1332.99,2207.32L1469.01,2207.32C1473.9,2207.32 1478.24,2204.92 1480.89,2201.24L1575.18,2107.37C1578.21,2104.35 1579.64,2100.33 1579.47,2096.37C1579.48,2096.15 1579.48,2095.94 1579.48,2095.72L1579.48,1960.55C1579.48,1955.97 1577.38,1951.87 1574.08,1949.17L1480.89,1856.39C1478.24,1852.71 1473.9,1850.31 1469.01,1850.31L1332.99,1850.31Z" style="fill:rgb(95,187,70);"/>
                            </g>
                            <path d="M1115.53,1919.73L1115.53,1919.64C1115.53,1912.3 1118.9,1905.75 1124.17,1901.43L1273.22,1753.04C1277.47,1747.15 1284.4,1743.31 1292.22,1743.31L1509.78,1743.31C1517.6,1743.31 1524.53,1747.15 1528.78,1753.04L1677.83,1901.43C1683.1,1905.75 1686.47,1912.3 1686.47,1919.64L1686.47,2135.82C1686.47,2136.17 1686.46,2136.51 1686.44,2136.86C1686.72,2143.2 1684.44,2149.62 1679.58,2154.46L1528.78,2304.59C1524.53,2310.48 1517.6,2314.32 1509.78,2314.32L1292.22,2314.32C1284.4,2314.32 1277.47,2310.48 1273.22,2304.59L1122.42,2154.46C1117.56,2149.62 1115.28,2143.2 1115.56,2136.86L1115.54,2136.1C1115.54,2136.01 1115.53,2135.91 1115.53,2135.82L1115.53,1919.74L1115.53,1919.73ZM1164.53,1938.45L1164.53,1938.38C1164.53,1932.3 1167.31,1926.87 1171.68,1923.29L1295.15,1800.37C1298.67,1795.49 1304.41,1792.31 1310.89,1792.31L1491.11,1792.31C1497.59,1792.31 1503.33,1795.49 1506.85,1800.37L1630.32,1923.29C1634.69,1926.87 1637.47,1932.3 1637.47,1938.38L1637.47,2117.45C1637.47,2117.74 1637.47,2118.03 1637.45,2118.32C1637.69,2123.57 1635.79,2128.89 1631.77,2132.89L1506.85,2257.26C1503.33,2262.14 1497.59,2265.32 1491.11,2265.32L1310.89,2265.32C1304.41,2265.32 1298.67,2262.14 1295.15,2257.26L1170.23,2132.89C1166.21,2128.89 1164.31,2123.57 1164.55,2118.32L1164.53,2117.69C1164.53,2117.61 1164.53,2117.53 1164.53,2117.45L1164.53,1938.46L1164.53,1938.45Z" style="fill:rgb(44,82,153);"/>
                        </g>
                    </g>
                </g>
                <g transform="matrix(2.02395,0,0,2.02395,-1513.94,-3156.05)">
                    <text x="814.988px" y="2721.91px" style="font-family:'Montserrat-Medium', 'Montserrat';font-weight:500;font-size:50px;fill:rgb(35,31,32);">W<tspan x="868.538px " y="2721.91px ">a</tspan>llDec<tspan x="1026.39px " y="2721.91px ">o</tspan>r | Ph<tspan x="1190.79px 1222.54px 1242.34px " y="2721.91px 2721.91px 2721.91px ">oto</tspan>Bloc<tspan x="1385.84px " y="2721.91px ">k</tspan> | Bab<tspan x="1559.59px " y="2721.91px ">y</tspan>Bio | Gr<tspan x="1771.64px 1801.69px " y="2721.91px 2721.91px ">ad</tspan>uationBo<tspan x="2069.34px 2099.24px 2119.14px " y="2721.91px 2721.91px 2721.91px ">ard</tspan> | A<tspan x="2231.44px 2259.59px 2287.74px " y="2721.91px 2721.91px 2721.91px ">cce</tspan>ssor<tspan x="2420.34px " y="2721.91px ">i</tspan>es</text>
                </g>
            </g>
        </g>
    </g>
    <defs>
        <linearGradient id="_Linear1" x1="0" y1="0" x2="1" y2="0" gradientUnits="userSpaceOnUse" gradientTransform="matrix(1,0,0,-1,0,-3.11082e-06)"><stop offset="0" style="stop-color:rgb(0,236,0);stop-opacity:1"/><stop offset="1" style="stop-color:rgb(0,118,0);stop-opacity:1"/></linearGradient>
        <linearGradient id="_Linear2" x1="0" y1="0" x2="1" y2="0" gradientUnits="userSpaceOnUse" gradientTransform="matrix(1,0,0,-1,0,9.703e-06)"><stop offset="0" style="stop-color:rgb(0,236,0);stop-opacity:1"/><stop offset="1" style="stop-color:rgb(0,118,0);stop-opacity:1"/></linearGradient>
        <linearGradient id="_Linear3" x1="0" y1="0" x2="1" y2="0" gradientUnits="userSpaceOnUse" gradientTransform="matrix(1,0,0,-1,0,-1.09719e-06)"><stop offset="0" style="stop-color:rgb(0,236,0);stop-opacity:1"/><stop offset="1" style="stop-color:rgb(0,118,0);stop-opacity:1"/></linearGradient>
        <linearGradient id="_Linear4" x1="0" y1="0" x2="1" y2="0" gradientUnits="userSpaceOnUse" gradientTransform="matrix(1,0,0,-1,0,-3.09017e-06)"><stop offset="0" style="stop-color:rgb(255,89,36);stop-opacity:1"/><stop offset="0.48" style="stop-color:rgb(255,40,164);stop-opacity:1"/><stop offset="1" style="stop-color:rgb(0,55,157);stop-opacity:1"/></linearGradient>
        <linearGradient id="_Linear5" x1="0" y1="0" x2="1" y2="0" gradientUnits="userSpaceOnUse" gradientTransform="matrix(1,0,0,-1,0,-1.21575e-05)"><stop offset="0" style="stop-color:rgb(255,89,36);stop-opacity:1"/><stop offset="0.48" style="stop-color:rgb(255,40,164);stop-opacity:1"/><stop offset="1" style="stop-color:rgb(0,55,157);stop-opacity:1"/></linearGradient>
        <linearGradient id="_Linear6" x1="0" y1="0" x2="1" y2="0" gradientUnits="userSpaceOnUse" gradientTransform="matrix(1,0,0,-1,0,1.44915e-05)"><stop offset="0" style="stop-color:rgb(255,89,36);stop-opacity:1"/><stop offset="0.48" style="stop-color:rgb(255,40,164);stop-opacity:1"/><stop offset="1" style="stop-color:rgb(0,55,157);stop-opacity:1"/></linearGradient>
        <linearGradient id="_Linear7" x1="0" y1="0" x2="1" y2="0" gradientUnits="userSpaceOnUse" gradientTransform="matrix(0.707107,-0.707107,-0.707107,-0.707107,0.106455,0.257005)"><stop offset="0" style="stop-color:rgb(255,89,36);stop-opacity:1"/><stop offset="0.48" style="stop-color:rgb(255,40,164);stop-opacity:1"/><stop offset="1" style="stop-color:rgb(0,55,157);stop-opacity:1"/></linearGradient>
    </defs>
</svg>
